<?xml version="1.0" encoding="UTF-8"?>
<svg id="Camada_1" data-name="Camada 1" xmlns="http://www.w3.org/2000/svg" viewBox="0 0 1650.84 1785.8">
  <path d="M782.93,1649.28l-317.31-197.6-242.17-151.72c-25.44-15.94-43.75-41.2-43.8-71.9l-.27-182.24c12.25,3.14,22.2,5.23,33.32,5.18l92.2-.42-.02,122.77c0,16.16,7.42,28.46,21.22,37.08l349.31,218.07.36-133.14c.02-8.37,4.03-16.47,9.2-22.25l39.13-40.53-.14-97.98c-55.3-24.7-100.23-65.12-130.73-119.01l-50.37-.02-54.26,142.07c-4.7,12.3-13.91,20.98-26.47,25.27-15.94,2.18-33.1-6.5-38.49-23.48l-45.29-142.53-178.02-.17c-10.4,0-33.81-29.79-47.75-30.8-24.62-1.79-46.9-.85-71.68-1.36l-59.67-67.48c-7.62-8.61-13.85-16.83-21.22-26.83l80.68-93.89,78.95-.59c3.9,15.94,4.29,31.64,11.87,47.1,17.03-28.05,31.45-51.78,48.08-76.27,12.05-17.74,21.46-33.74,36.98-52.72l54.27,87.09,76.01-179.33c5.41-12.77,21.11-17.92,32.25-16.92,12.25,1.1,22.72,9.03,27.1,22.4l45.14,137.9,100.69-.42c31.36-53.34,75.29-94.86,131.98-118.69l.07-92.7-38.73-39.01c-5.12-6.31-9.63-13.7-9.65-22.17l-.27-137.99-356.38,221.94c-10.47,6.52-14.01,18.22-14.01,29.37v122.94c-16.02-23.33-24.3-49.85-56.23-45.68-11,1.43-19.68,9.95-26.55,20.57-13.56,20.99-26.27,40.53-42.03,62.12l-.49-211.99c-.07-30.51,17.76-56.74,43.21-72.59l174.2-108.47,150.84-93.36,223.66-138.66c35.37-21.93,73.07-19,107.65,2.46l538.97,334.54c29.32,18.2,48.71,43.83,48.69,79.16l-.11,176.09c-10.24-3.69-18.69-5.7-28.32-5.67l-97.08.32-.13-121.79c-.01-10.19-3.17-22.89-13.28-29.18l-357.61-222.36-.69,144.34c-.01,3.12-3.79,9.63-5.28,12.08l-42.01,42.78.15,92.73c57.05,24.01,101.91,64.83,132.11,118.56l52.88-.48,42.55-106.06c12-29.9,19.55-66.79,53.21-60.59,11.23,2.07,21.09,10.99,25.11,24.1l42.94,139.82,167.08-.49c20.77-.06,33.57,18.78,50.58,32.98l73.35.48c3.43.02,9.33,4.08,11.25,6.26l77.18,87.91-81.36,94.58-82.17.35-6.58-40.85c-.47-2.89-6.36-4.63-8.6-3.94-3.09.96-4.72,5.36-6.18,9.59-7.42,21.6-20.79,40.1-33.38,59.02-13.55,20.35-24.82,38.83-41.93,59.36l-53.5-84.36-35.04,87.02-36.81,89.28c-5.82,14.11-19.31,22.47-33.24,21.48-14.44-1.03-24.69-11.22-29.28-26.05l-43.03-138.84-106.71-.18c-27.25,52.72-75.16,95.68-130.35,119.27l-.26,97.4,34.14,36.07c7.65,6.62,13.71,15.75,13.74,26.31l.4,135.21,351.44-219.61c13.7-8.56,19.34-20.04,19.34-36.05v-120.6s15.62,23.82,15.62,23.82c7.6,11.59,18.28,19.89,31.18,20.52,13.33.66,26.44-4.83,34.36-16.49l44.5-65.47-.31,209.57c-.05,32.45-17.79,59.25-44.77,76.11l-557.81,348.49c-21.9,13.68-58.69,14.15-81.34.04ZM752.26,550.62l.17,84.87,56.09-8.41-.22-354.32-104.16,64.15.11,154.21,41.23,42.79c3.28,3.41,6.78,10.95,6.79,16.71ZM902.65,531.62l39.17-39.69-.06-154.9-104.39-64.51-.21,354.56c20.79,1.87,37.52,4.6,56.99,8.7v-84.12c0-7.05,3.81-13.87,8.49-20.04ZM877.78,1118.14c98.42-24.36,170.64-109.82,178.1-210.99,4.67-63.38-16.8-124.22-58.09-171.95-49.05-56.7-120.69-85.05-196.01-78.47-135.62,11.86-234.06,144.21-207.57,276.88,26.11,130.79,153.62,216.69,283.57,184.53ZM704.49,1446.9l104.31,64.5-.2-357.01c-19.22-2.03-37.04-4.9-55.73-10.12l-.84,95.39c-.07,7.54-8.75,15.15-13.37,20.05l-34.43,36.51.26,150.7ZM942.05,1294.81l-39.28-40.07c-5.22-5.33-8.33-13.51-8.37-21.24l-.51-89.77c-21,5.96-37.41,8.69-56.83,10.5l.02,357.57,104.74-65.08.23-151.9Z"/>
  <path d="M84.84,1018.52l49.05.71.3,233.02c.04,31.77,18.18,59.11,44.17,75.28l92.89,57.79,504.33,315.23c29.02,18.14,64.69,18.91,93.79.73l424.62-265.33,183.64-116.19c20.37-12.89,34.4-40.44,34.44-64.39l.33-238.14,48.49-.61c6.08-.08,12.79-1.74,19.15-3.42l-.44,247.76c-.04,20.2-7.04,40.17-14.69,57.93-11.95,27.77-32.41,50.11-58.47,66.36l-610.72,380.89c-43.5,27.13-103.71,25.56-146.24-.88l-262.52-163.2-239.89-150.16-108.23-67.84c-27.93-17.5-49.81-42.08-61.14-73.39-6.18-17.09-11.27-35.14-11.29-53.92l-.3-242.32c6.19,1.3,13.31,4.01,18.73,4.09Z"/>
  <path d="M1235.22,308.85l-358.23-223.26c-36.63-22.83-71.88-22.11-108.4.68l-288.8,180.18-295.89,183.31c-27.58,17.09-49.35,42.79-49.43,76.83l-.56,235.22-43.7.3c-7.34.05-15.62,3.31-23.83,6.02l.33-252.55c.02-17.2,6.92-34.76,12.67-49.84,12.35-32.41,37.13-55.2,66.23-73.23L721.06,35.96c15.78-9.77,29.72-19.23,46.67-25.75,33.96-13.05,72.03-13.53,106.54-1.82,18.56,6.3,33.4,16.85,49.92,27.05l202.89,125.26,323.69,200.45c23.86,14.78,45.58,27.31,68.22,44.02,33.66,24.84,59.3,62.69,59.6,106.69l1.72,249.9-17.53-1.87c-16.59-1.77-32.42-.43-50.43-.23l-.81-237.69c-.08-25.06-16.63-46.7-34.31-61.88-12.8-10.99-26.64-17.54-41.09-26.51l-200.91-124.74Z"/>
  <path d="M992.04,994.65c-45.69,73.44-130.87,108.71-214.39,89.16-75.98-17.78-135.31-80.01-149.57-156.36-13.77-73.73,14.23-146.41,71.23-193.28,37.92-31.18,83.41-44.66,132.87-43.15,61.28,1.87,116.13,31.83,152.3,82.04,46.73,64.87,49.84,153.64,7.56,221.6ZM684.83,874.43c8.24-70.09,64.46-121.51,134.18-125.39,8.08-.45,12.71-7.08,11.85-14.02-2.83-22.97-62.92-.28-77.4,6.35-50.88,23.29-85.06,72.37-92.38,127.62-1.07,8.08,2.06,16.22,8.93,16.54,5.42.25,13.82-2.68,14.81-11.09Z"/>
</svg>