<?xml version="1.0" encoding="UTF-8"?>
<svg id="Camada_1" data-name="Camada 1" xmlns="http://www.w3.org/2000/svg" viewBox="0 0 1685.55 1830.64">
  <path d="M689.56,1482.1v-153.61c.01-10.18,5.62-18.12,12.09-24.71l37.98-38.68-.27-101.22c-5.51-4.05-12.7-6.9-18.73-6.98l-57.65,68.53c-11.63,13.82-30.59,20.56-46.9,10.35l-111.82-69.99-7.89,18.37c-5.62,13.07-14.97,26.72-30.82,28.59-13.5,1.6-29.09-10-33.71-23.98l-39.61-119.72-7.87-26.7-161.5.62c-40.93.16-32.03-14.06-65.04-32.2l-73.79-.92c-20.53-20.32-38.1-42.35-57.34-63.89l-26.69-29.88,77.09-89.61c2.45-2.84,8.85-7.18,12.59-7.25l72.31-1.34,6.9,39.62.66,4.03c.21,1.29,6.26.5,7.2-.96l69.96-109.54c4.54-7.11,9.24-10.6,16.12-15.28l52.51,87.58,18.2-43.45,16.1-36.98c16.07-36.92,30.81-73.63,48.53-109.04,6.32-12.62,19.86-16.31,31.47-14.76,8.12-7.56,16.66-14.54,26.65-20.66l107.18-65.73c-.79-14.19,1.66-26.76,10.17-35.55,9.16-9.46,22.25-13.45,36.23-11.48,16.9,2.39,28.92,15.63,31.98,29.24,3.96,17.62-2.39,33.84-14.74,42.51-15.03,10.55-32.37,9.6-49.5-.41l-113.38,69.44c-7.16,4.38-14.28,15.01-11.66,22.86l45.69,136.6,105.29.12c24.08-39.97,52.11-73.18,93.13-98.86l-53.2-65.57c-3.73-4.59-9.84-5.45-14.58-2.51l-96.6,59.95c-7.39,4.59-11.57,13.77-11.57,22.3l.02,69.39c-3.74.47-10.08.29-12.37-.7l-10.55-35.58c-7.87-26.52-9.51-60.97,17.04-77.45l100.06-62.13c15.53-9.64,36.21-7.87,48.46,7.12l58.19,71.18,17.96-9.13-.21-97-43.61-44.06c-3.29-3.32-6.2-12.62-6.18-17.5l.42-161.72c.03-11.11,11.53-22.07,20.24-27.44l106.11-65.45c14.68-9.05,31.39-9.52,46.53-.23l109.99,67.47c12.55,7.7,17.47,19.96,17.46,33.86l-.09,149.61c0,6.34-1.19,16.84-5.18,20.87l-43.71,44.09-.39,97.29,17.87,8.78,60.02-71.96c11.39-13.66,31.19-14.91,45.32-6.24l92.7,56.87c7.82,4.79,15.12,11.2,21.77,17.07l24.88-49.56-99.91-61.56c-17.75,9.34-37.77,11.84-53.28-2.55-13.34-12.37-17.49-34.19-6.57-51.46,9.64-15.25,29.99-22.06,47.16-16.04,20.2,7.09,27.2,25.23,27.49,45.87l118.19,73.57c28.25,17.58,21.08,45.91,28.86,70.31l33.92,106.44,178.91-.34c15.94,7.25,27.83,20.9,40.3,33.09l82.38.65,84.64,95.47-82.62,95.73-83.3.59-7.52-44.02c-2.79-2.15-11.08-2.67-13.2-.44-2.94,12.87-7.28,26.67-14.37,37.83-19.93,31.39-37.64,61.39-63.7,90.63l-53.38-83.76-77.52,181.88c-4.28,10.04-14.79,18.66-25.49,19.45-15.49,1.14-28.25-10.53-32.77-24.92l-45.26-143.91-111.25-.08c-22.62,41.38-51.31,73.55-92.3,99.11l54.85,65.6c4.61,5.51,11.49,6.66,17.55,2.89l95-59.26c6.57-4.1,10.39-12.36,10.38-19.94l-.07-72.55c3.53-1.25,10.1-1.64,14.04-1.03l12.59,41.97c3.38,11.27,1.13,26.95.56,38.49-.97,19.85-13.01,31.29-28.29,40.7l-95.87,59.06c-16.25,10.01-35.52,1.73-46.66-11.58l-57.91-69.24c-6.3,2.34-12.29,4.86-18.04,7.76v101.56s38.47,39.28,38.47,39.28c5.97,6.09,11.12,14.93,11.12,24.26l.03,153.85c0,13.05-7.46,24.37-18.23,31.15l-113.97,71.75c-12.35,7.77-26.72,6.36-38.6-1.17l-112.35-71.27c-10.62-6.74-17.92-18.06-17.92-30.54ZM767.48,655.15c22.01-4.98,37.8-7.63,58.57-9.47l-.11-149.54c-18.02-7.9-26.4-23.22-26.35-39.76s10.2-30.98,26.62-38.24l-.32-139.09-108.41,66.79-.23,158.58,41.51,41.87c4.34,4.38,8.34,13.07,8.37,19.23l.34,89.63ZM913.27,568.24c.03-23.25,31.99-43.64,48.86-61.51l.21-156.94c-1.77-3.53-5.32-8.33-8.5-10.28l-99.84-60.98-.2,139.91c18.34,7.54,27.08,22.93,26.87,40.16-.2,15.96-9.96,29.79-26.83,36.88l-.16,150.29c20.73,1.22,39.4,4.45,59.49,9.74l.11-87.29ZM834.05,441.46c-10,4.1-12.55,14.8-9.01,22.29,3.76,7.95,13.53,12.55,19.85,9.97,10.12-4.12,13.75-13.21,11.02-21.74-2.59-8.08-12.08-14.54-21.86-10.53ZM599.46,509.03c-10.26,2.16-15.33,11.12-11.32,21.43,2.71,6.95,10.58,13.63,21.37,9.63,6.25-2.32,12.08-11.39,9.29-19.98-2.49-7.66-10.24-13-19.35-11.08ZM1071.53,509.74c-10.3,3.75-13.49,14.67-9.47,22.05,4.14,7.59,13.36,11.28,20.87,8.47,8.55-3.2,13.52-12.74,9.91-21.15-3.15-7.34-11.96-12.77-21.32-9.37ZM1132.84,785.57l23.01-55.27c3.02-7.26,4.15-15.98,4.58-23.92.82-15.11-5.36-23.36-17.14-30.65l-90.8-56.17c-4.3-2.66-10.55-3.73-13.97.42l-54.47,66.23c44.32,30.38,65.31,55.47,93.31,100.26l55.47-.91ZM531.81,1010.03h90.01c27.02,61.16,77.7,108.81,142.08,130.97,80.2,27.61,168.82,9.51,232.2-46.25,27.62-24.3,48.06-52.64,63.85-84.73l118.01-.32,18.81-40.72,59.48,198.32c.72,2.39,7.5,5.84,9.74,4.77s4.08-4.79,5.66-8.72l91.01-226.3,55.71,97.15c1.08,1.89,5,4,5.9,3.33s3.25-2.59,4-3.76l46.25-72.31c-5.06-3.63-9.67-6.31-14.02-8.24l-37.24,57.61-46.73-77.9c-3.06-5.1-9.41-25.17-17.38-21.7-1.79.78-4.76,4.01-5.56,6.02l-38.37,96.78-49.87,124.51c-12.23-33.89-20.39-64.18-30.46-96.47l-28.83-92.39c-1.52-3.4-2.71-6.76-4.63-7.98s-8.19-.56-9.7.1l-23.62,51.65-102.51-.43c14.93-38.87,16.01-75.92,11.41-116.04l117.3-.26,21.8-54.95,31.76,115.02,22.87,77.79c.56,1.92,4.21,5.28,6.09,5.14,1.5-.11,5.09-2.91,5.85-4.74l56.67-135.9,250.95-.86c2.7,0,7.3-3.91,7.25-6.05-.04-1.71-3.35-6.48-5.62-6.59-31.01-1.48-67.63-1.29-100.16-.39l-162.4.34-51.08,123.82-38.79-136.58-15.35-59.84c-.55-2.14-4.12-5.88-6.25-5.93s-5.94,3.96-6.9,6.4l-27.23,69.32-109.2.82-8.64-30.37,98.62-.43,38.21-97.23,19.43-48.65,57.05,194.27c.9,3.06,4.64,6.77,6.99,7.4s8.24-2.32,9.24-4.62l22.21-50.92,151.23-.04c3.42,0,8.2-6.34,7.8-9.32s-5.47-7.77-9.43-7.77l-158.1.1-19.84,42.06c-10.13-27.59-16.37-53.58-24.55-81.48l-18-61.34-14.65-52.01c-.96-3.4-4.96-8.35-7.95-8.48-3.74-.17-8.22,3.51-9.98,7.29l-59.29,154.29-96.68.71c-38.71-88.91-124.71-143.06-218.8-143.05-92.96,0-179.06,55.16-216.75,142.37l-107.51.08c-3.96,0-8.92,5.2-10.1,8.64l-16.41,34.95-20.34-65.72-40.79-132.07c-.86-2.8-7.99-5.33-10.01-4.05-2.04,1.28-4.04,4.81-5.47,8.39l-90.88,226.59-57.32-96.52c-.99-1.66-5.07-4.9-6.95-4.47-1.5.35-3.46,3.22-4.66,5.12l-43.26,68.32,9.35,12.31,39.77-60.09,56,95.54c1.65,2.81,5.6,6.75,8.19,6.44,2.16-.26,5.91-4.1,6.88-6.49l62.81-154.07,28.38-70.35,58.75,194.29c1.23,4.07,6.71,7.64,10.41,6.8,3.17-.72,6.82-5.92,7.96-9.63l20.4-47.25,96.58.27c-14.03,41.08-16.16,78.41-10.85,118.36l-101.81.08c-6.01,0-11.11,3.19-13.28,8.38l-19.81,48.34-39.81-140.76-12.81-47.37c-.3-5.9-6.55-12.95-13.08-11.03l-56.74,140.31-191.65.61c-3.04,0-6.77,7.36-5.1,9.51,1.39,1.79,6.1,5.03,8.44,5.03l192.44-.3c3.68-2.28,7.39-6.07,8.93-9.89l46.72-115.51,40.54,144.73,14.78,50.85,4.61,4.95c8.33,8.94,30.85-66.13,34.6-73.46l106.12-.3,8.02,27.85-92.84.38-58.57,148.66-31.62-102.43-27.05-91.32c-2.63-2.76-6.51-6.3-9.09-6.08-2.15.19-4.92,4.53-5.86,6.73l-18.92,44.15-154.41.26c-3.34,0-8.44,6.59-8.3,9.62.12,2.65,5.22,7.3,8.24,7.3l155.14-.06c16.26,0,13.28-20.8,24.94-37.11l32.54,111.27,25.47,83.48c.69,2.25,4.79,5.71,6.93,6.25s7.17-2.81,8.01-4.95l62.48-159.9ZM627.24,1210.4c7.41,1.9,11.72-.26,15.74-5.04l54.52-64.8c-39.88-25.39-69.03-59.05-93.18-99.22l-51.95-.25-29.01,76.06c-2.72,7.13-5.5,23.68,2.52,28.78l101.36,64.47ZM962.41,1327.9l-39.77-39.88c-7.12-7.14-9.09-15-9.11-25.7l-.15-89.3-59.82,10.2.4,152.45c22.39,9.92,31.55,34.18,23.04,54.3s-32.97,31.01-52.96,21.2c-16.06-7.88-25.34-23.3-23.97-39.8,1.29-15.55,10.63-28.84,26.35-36.55l-.09-151.62-58.89-10.43-.11,96.26c0,7.43-5.49,14.46-10.33,19.49l-38.97,40.51.13,152.87c4.06,6.3,10.99,11.35,17.43,15.41l104.77,66,113.28-71.47c5.23-3.3,8.48-9.63,8.49-16.07l.3-147.88ZM836.53,1357.86c-10.98,3.07-14.63,13.11-12.01,20.88,2.98,8.83,10.63,13.3,19.26,11.49,9.2-1.93,13.74-10.89,11.72-20.63-1.43-6.89-9.55-14.37-18.97-11.74Z"/>
  <path d="M890.82,53.39c-38.17-23.44-81.57-13.8-116.54,7.84l-328.76,203.44-282.22,174.73c-33.15,20.52-58.83,51.81-58.99,93.46l-1,254.77c-14.24-.42-26.56.97-39.46,8.09l.43-261.32c.08-46.61,23.52-94.43,63.31-119.25l193.91-120.99L762.62,21.34c49.26-30.46,111.44-27.15,159.24,2.49l103.68,64.31,522.2,323.69c42.03,26.05,68.04,73.72,68.14,122.43l.49,255.53c-12.98-5.58-25.89-7.3-39.38-5.76l-1.4-252.56c-.23-41.16-27.55-73-60.62-93.44l-345.04-213.23L890.82,53.39Z"/>
  <path d="M1576.24,1284.67l.66-243.48c16.78,1.36,26.97.44,39.72-5.07l-1.62,261.8c-.33,52.91-32.75,97.27-76.16,124.44l-614.85,384.7c-54.22,33.92-120.5,29.95-173.85-3.48l-614.56-385.06c-42.71-26.76-71.49-78.14-71.54-127.66l-.25-255.75c13.15,6.89,24.18,8.93,39.43,7.62l1.04,248.19c.17,40.7,23.56,75.81,57.23,96.84l212.2,132.52,407.27,254.27c33.49,20.91,81.76,22.52,115.9,1.29l288.63-179.44,333.88-208.83c35.72-22.34,56.76-59.7,56.88-102.9Z"/>
  <path d="M870.3,167.67c-19.6-12.11-41.98-11.4-60.44.02L242.77,518.54c-17.55,10.86-31.16,27.3-31.2,48.94l-.2,101.13-.38,107.21-31.32,48.17-.37-258.89c-.04-26.98,16.91-55.22,39.88-69.47L787.38,143.22c34.64-21.49,71.55-21.12,106.07.28l266.89,165.5,295.76,183.16c29.03,17.98,45.84,47.69,45.85,81.95l.11,205.14c-11.79-7.29-20.14-10.51-33.05-10.76l.08-194.16c.01-27.38-13.58-44.87-35.93-58.68l-238.95-147.72-323.91-200.25Z"/>
  <path d="M211.34,1058.28l.4,197.24c.05,26.76,14.73,45.39,36.34,58.82l111,68.99,452.6,283.25c17.11,10.71,42.53,9.45,59.02-.87l564.77-353.32c20.38-12.75,33.47-32.65,33.48-56.69l.08-200.06c10.11-16.69,19.12-31.29,32.07-48.14l-.18,252.5c-.02,33.78-20.02,61.71-47.86,79.14l-557.89,349.18c-30.31,18.97-67.94,25.84-100.06,5.74l-575.09-359.96c-26.99-16.89-40.51-47.8-40.6-78.27l-.6-208.86c9.92,6.1,18.67,9.87,32.53,11.31Z"/>
  <path d="M497.51,1349.18l81.66,51.49c16.64-11.05,37.51-10.54,51.68,2.33,14.29,12.98,17.42,33.76,8.26,50.26-9.26,16.7-30.04,23.42-48.02,17.88-19.36-5.96-29.72-24.63-26.37-46.9l-250.85-156.25c-17.86-11.12-32.44-26.37-32.56-49.12l-.8-161.03c9.56-.74,18.4-.8,28.28-.2l-.09,158.68c0,12.11,10.73,21.66,20.36,27.67l168.44,105.17ZM598.95,1417c-10.68,3.67-13.48,14.37-9.67,22.75,3.45,7.57,11.73,11.62,20.77,8.65,7.89-2.59,12.05-12.03,9.39-21.11-2.14-7.3-10.95-13.57-20.49-10.29Z"/>
  <path d="M1400.49,766.72c-9.18,1.54-17.89,1.73-28.22.9l.03-149.45c0-13.39-5.12-22.46-16.4-29.42l-252.95-156.08c-17.21,12.79-37.66,10.96-52.47-1.53-14.11-11.91-17-33.64-8-49.85,9.3-16.76,29.75-23.92,47.43-18.05,18.65,6.19,30.67,22.57,27.29,45.13l252.45,155.1c17.24,10.59,30.4,26.15,30.45,47.72l.39,155.53ZM1070.29,386.22c-9.57,4.06-11.88,14.88-7.97,22.37,4.71,9.02,14.7,10.89,22.54,7.66,9.65-3.97,11.54-14.63,7.46-22.73s-13.3-11.01-22.03-7.3Z"/>
  <path d="M308.62,778.83c-11.26-14.29-21.39-30.77-27.88-47.2l-.32-120.18c-.04-16.63,8.53-34.19,22.87-43.02l259.96-160.15c-2.35-20.02,6.67-37.03,24.64-44.33,17.63-7.16,38.25-.8,48.69,15.22,10.55,16.19,8.45,38.29-6.01,51.48s-35.12,15-53.15,1.83l-255.99,158.28c-8.12,5.02-12.4,13.87-12.42,22.82l-.38,165.25ZM597.21,385.97c-9.68,3.6-12.91,13.99-8.48,23.07,3.44,7.05,13.4,11.51,22.42,6.86,6.69-3.45,11.39-13.84,7.47-21.62-3.66-7.26-13.07-11.43-21.42-8.32Z"/>
  <path d="M1116.35,1423.48c2.9,25-9.46,46.44-34.13,49.05-18.39,1.95-35.82-7.76-42.54-23.28-7.33-16.94-2.22-36.38,11.6-47.44,14.05-11.25,32.92-11.86,49.16-1.12l248.69-154.99c10.63-6.62,22.81-15.77,22.86-29.5l.59-166.24c11.33,14.71,19.53,28.78,27.93,43.55l-.67,123.16c-.14,25.96-16.96,41.37-36.84,53.7l-246.66,153.11ZM1070.11,1417.27c-9.93,3.69-12.45,15.3-9.43,22.29,4.3,9.95,14.49,11.67,22.09,8.95,9.6-3.43,12.74-13.01,9.47-21.31-3.4-8.63-12.83-13.39-22.13-9.93Z"/>
  <path d="M958.59,1078.31c-40.25,29.27-86.16,41.23-135.97,37.26-91.64-7.3-167.94-78.12-182.75-169.08-11.75-72.2,16.55-144.22,71.05-189.31,56.21-46.5,133.45-59.86,201.81-33.14,49.89,19.5,89.6,56.3,111.23,103.93,40.57,89.38,14.62,192.17-65.37,250.33ZM698.73,890.69c11.77-68.36,66.93-116.82,135.22-120.64,7.34-.41,12.89-5.93,13.12-12.62.73-21.14-42.8-8.5-54.67-4.99-65.57,19.43-113.17,76-118.73,144.64-.35,4.27,3.47,10.78,6.59,11.93,2.64.97,8.53-.02,11.34-2.38,3.66-3.07,6.04-9.63,7.13-15.95Z"/>
</svg>